<?xml version="1.0" encoding="utf-8"?>
<!-- Generator: Adobe Illustrator 25.2.3, SVG Export Plug-In . SVG Version: 6.00 Build 0)  -->
<svg version="1.1" id="レイヤー_1" xmlns="http://www.w3.org/2000/svg" xmlns:xlink="http://www.w3.org/1999/xlink" x="0px"
	 y="0px" viewBox="0 0 100 99.998" style="enable-background:new 0 0 100 99.998;" xml:space="preserve">
<style type="text/css">
	.st0{fill:#FF0000;}
	.st1{fill:#FFFFFF;}
</style>
<g>
	<g>
		<path class="st0" d="M50,98.581c-6.384,0-12.22-2.93-16.01-8.036l-0.504-0.68l-0.837,0.122c-0.956,0.139-1.928,0.209-2.89,0.209
			c-5.332,0-10.343-2.076-14.111-5.845c-4.513-4.514-6.568-10.71-5.639-17l0.124-0.839l-0.681-0.506
			c-5.105-3.792-8.034-9.627-8.034-16.008c0-6.383,2.928-12.218,8.033-16.008l0.682-0.506l-0.125-0.839
			c-0.929-6.291,1.126-12.487,5.639-17c3.77-3.769,8.781-5.845,14.112-5.845c0.958,0,1.931,0.07,2.891,0.209l0.837,0.121
			l0.504-0.679C37.781,4.346,43.616,1.418,50,1.418c6.385,0,12.22,2.929,16.01,8.035l0.504,0.679l0.837-0.121
			c0.959-0.139,1.932-0.209,2.89-0.209c5.331,0,10.343,2.076,14.113,5.845c4.512,4.513,6.566,10.709,5.638,17l-0.124,0.839
			l0.682,0.506c5.105,3.791,8.034,9.625,8.034,16.008c0,6.383-2.929,12.218-8.034,16.008l-0.682,0.506l0.124,0.839
			c0.93,6.29-1.125,12.486-5.638,17c-3.771,3.769-8.783,5.845-14.112,5.845c-0.962,0-1.935-0.07-2.89-0.209l-0.837-0.122
			l-0.504,0.68C62.22,95.652,56.385,98.581,50,98.581z"/>
		<path class="st1" d="M50,2.835c5.932,0,11.352,2.72,14.871,7.463l1.008,1.359l1.674-0.243c0.891-0.129,1.795-0.195,2.687-0.195
			c4.952,0,9.608,1.928,13.11,5.43c4.192,4.193,6.101,9.948,5.238,15.79l-0.248,1.679l1.362,1.011
			c4.742,3.521,7.462,8.941,7.462,14.87c0,5.93-2.72,11.35-7.461,14.87l-1.363,1.012l0.248,1.679
			c0.864,5.841-1.046,11.596-5.238,15.789c-3.503,3.502-8.16,5.43-13.111,5.43c-0.892,0-1.796-0.065-2.686-0.194l-1.674-0.243
			L64.872,89.7c-3.52,4.743-8.941,7.463-14.872,7.463c-5.931,0-11.351-2.72-14.871-7.463l-1.008-1.358l-1.674,0.242
			c-0.891,0.129-1.795,0.195-2.687,0.195c-4.953,0-9.609-1.928-13.109-5.43c-4.193-4.193-6.102-9.949-5.239-15.79l0.248-1.678
			l-1.362-1.012c-4.742-3.522-7.462-8.942-7.462-14.87c0-5.93,2.72-11.35,7.461-14.87l1.363-1.012l-0.248-1.679
			c-0.864-5.842,1.046-11.597,5.239-15.79c3.501-3.501,8.157-5.43,13.109-5.43c0.892,0,1.796,0.065,2.687,0.195l1.674,0.242
			l1.008-1.358C38.649,5.555,44.069,2.835,50,2.835 M50,0c-6.845,0-13.122,3.184-17.148,8.608c-1.024-0.148-2.058-0.224-3.093-0.224
			c-5.71,0-11.077,2.224-15.114,6.26c-4.84,4.839-7.027,11.528-6.039,18.209C3.184,36.878,0,43.155,0,49.999
			c0,6.844,3.184,13.119,8.606,17.146c-0.987,6.68,1.2,13.369,6.039,18.209c4.036,4.037,9.404,6.26,15.114,6.26
			c1.035,0,2.07-0.076,3.093-0.224c4.026,5.424,10.302,8.608,17.148,8.608s13.122-3.184,17.149-8.608
			c1.023,0.148,2.056,0.224,3.092,0.224c0.001,0,0,0,0.001,0c5.709,0,11.076-2.225,15.114-6.26
			c4.839-4.84,7.026-11.529,6.038-18.209C96.816,63.12,100,56.843,100,49.999s-3.184-13.12-8.606-17.146
			c0.987-6.681-1.199-13.369-6.038-18.209c-4.038-4.037-9.405-6.26-15.115-6.26c-1.035,0-2.07,0.076-3.093,0.224
			C63.122,3.184,56.845,0,50,0L50,0z"/>
	</g>
</g>
</svg>
